<svg width="48" height="48" viewBox="0 0 48 48" fill="none" xmlns="http://www.w3.org/2000/svg">
<path d="M36.45 40H38.54L33.43 27H31.57L26.46 40H28.55L29.67 37H35.31L36.45 40ZM30.43 35L32.5 29.48L34.57 35H30.43ZM45.59 35.59L37.5 43.68L33.83 40L32.42 41.41L37.51 46.5L47 37L45.59 35.59Z" fill="#3E8277"/>
<path fill-rule="evenodd" clip-rule="evenodd" d="M8.00012 0.000295381C8.00012 1.1437 7.97045 1.87365 7.91139 2.19231C10.3636 0.752746 13.1567 -0.00406502 16 0.000295381C24.8369 0.000295381 32 7.16331 32 16.0001C32 24.837 24.8369 32 16 32C7.16308 32 0 24.837 0 16.0001C0 10.5688 2.70657 5.77009 6.84315 2.87746C6.84562 2.87388 5.89785 2.10574 4 0.570875L5.71457 0L6.85658 1.14341V0L8.00012 0.000295381ZM9.14354 8.00022C9.38722 10.2771 9.38722 11.4205 9.14354 11.429C3.52265 11.631 2.28555 11.429 2.28555 16.0001C2.28555 20.5713 5.71469 29.7143 15.9998 29.7143C26.285 29.7143 29.7141 20.5708 29.7141 16.0001C29.7141 11.5609 27.5592 11.4329 16.9704 11.429H15.277C14.3292 11.429 13.4481 11.429 12.6284 11.434C12.0894 11.4376 10.9262 10.293 9.14291 8.00024L9.14354 8.00022ZM9.2309 16.0001C9.89052 16.0001 10.4999 16.3521 10.8298 16.9232C11.1594 17.4944 11.1594 18.1982 10.8298 18.7694C10.4998 19.3405 9.89052 19.6924 9.2309 19.6924C8.57128 19.6924 7.96195 19.3405 7.63203 18.7694C7.30236 18.1982 7.30236 17.4944 7.63203 16.9232C7.96197 16.3521 8.57128 16.0001 9.2309 16.0001ZM22.7694 16.0001C23.429 16.0001 24.0383 16.3521 24.3682 16.9232C24.6979 17.4944 24.6979 18.1982 24.3682 18.7694C24.0383 19.3405 23.429 19.6924 22.7694 19.6924C22.1097 19.6924 21.5004 19.3405 21.1705 18.7694C20.8408 18.1982 20.8408 17.4944 21.1705 16.9232C21.5004 16.3521 22.1097 16.0001 22.7694 16.0001ZM16.0001 27.077C17.3059 27.077 18.5581 26.5583 19.4812 25.6349C20.4045 24.7119 20.9232 23.4597 20.9232 22.1539H11.0771C11.0771 23.4597 11.5957 24.7119 12.5191 25.6349C13.4422 26.5583 14.6944 27.077 16.0001 27.077Z" fill="#3E8277"/>
</svg>
