<svg width="48" height="48" viewBox="0 0 48 48" fill="none" xmlns="http://www.w3.org/2000/svg">
<path fill-rule="evenodd" clip-rule="evenodd" d="M14.0001 4.00037C14.0001 5.42963 13.963 6.34206 13.8891 6.74039C16.9543 4.94093 20.4457 3.99492 23.9998 4.00037C35.0459 4.00037 43.9996 12.9541 43.9996 24.0002C43.9996 35.0462 35.0459 44 23.9998 44C12.9538 44 4 35.0462 4 24.0002C4 17.2111 7.38318 11.2126 12.5539 7.59682C12.5569 7.59236 11.3722 6.63217 8.99995 4.71359L11.1431 4L12.5706 5.42926V4L14.0001 4.00037ZM15.4293 14.0003C15.7339 16.8464 15.7339 18.2757 15.4293 18.2863C8.40327 18.5387 6.85691 18.2863 6.85691 24.0002C6.85691 29.7141 11.1433 41.1429 23.9996 41.1429C36.8559 41.1429 41.1423 29.7135 41.1423 24.0002C41.1423 18.4511 38.4486 18.2911 25.2128 18.2863H23.0961C21.9113 18.2863 20.81 18.2863 19.7853 18.2925C19.1116 18.2969 17.6576 16.8663 15.4285 14.0003L15.4293 14.0003ZM15.5385 24.0002C16.363 24.0002 17.1247 24.4401 17.5371 25.154C17.9492 25.868 17.9492 26.7478 17.5371 27.4617C17.1247 28.1756 16.363 28.6155 15.5385 28.6155C14.714 28.6155 13.9523 28.1756 13.5399 27.4617C13.1279 26.7478 13.1279 25.8679 13.5399 25.154C13.9524 24.4401 14.714 24.0002 15.5385 24.0002V24.0002ZM32.4614 24.0002C33.286 24.0002 34.0476 24.4401 34.46 25.154C34.8721 25.868 34.8721 26.7478 34.46 27.4617C34.0476 28.1756 33.286 28.6155 32.4614 28.6155C31.6369 28.6155 30.8753 28.1756 30.4629 27.4617C30.0508 26.7478 30.0508 25.8679 30.4629 25.154C30.8753 24.4401 31.6369 24.0002 32.4614 24.0002ZM24 37.8462C25.6321 37.8462 27.1974 37.1979 28.3512 36.0437C29.5054 34.8898 30.1538 33.3246 30.1538 31.6924H17.8462C17.8462 33.3246 18.4945 34.8898 19.6487 36.0437C20.8026 37.1979 22.3678 37.8462 24 37.8462Z" fill="#3E8277"/>
</svg>
