<svg width="20" height="20" viewBox="0 0 20 20" fill="none" xmlns="http://www.w3.org/2000/svg">
<path fill-rule="evenodd" clip-rule="evenodd" d="M5.00003 0.000184613C5.00003 0.714815 4.98148 1.17103 4.94457 1.37019C6.47717 0.470466 8.22287 -0.00254064 9.99991 0.000184613C15.5229 0.000184613 19.9998 4.47707 19.9998 10.0001C19.9998 15.5231 15.5229 20 9.99991 20C4.47688 20 0 15.5231 0 10.0001C0 6.60553 1.69159 3.60631 4.27693 1.79841C4.27847 1.79618 3.68612 1.31608 2.49998 0.356797L3.57157 0L4.28532 0.714631V0L5.00003 0.000184613ZM5.71466 5.00014C5.86696 6.4232 5.86696 7.13783 5.71466 7.14315C2.20164 7.26935 1.42846 7.14315 1.42846 10.0001C1.42846 12.857 3.57165 18.5714 9.99981 18.5714C16.428 18.5714 18.5712 12.8568 18.5712 10.0001C18.5712 7.22557 17.2243 7.14557 10.6064 7.14315H9.54803C8.95564 7.14315 8.40501 7.14315 7.89266 7.14624C7.55578 7.14847 6.8288 6.43315 5.71426 5.00015L5.71466 5.00014ZM5.76926 10.0001C6.18152 10.0001 6.56235 10.22 6.76855 10.577C6.97459 10.934 6.97459 11.3739 6.76855 11.7308C6.56234 12.0878 6.18152 12.3078 5.76926 12.3078C5.357 12.3078 4.97617 12.0878 4.76997 11.7308C4.56393 11.3739 4.56393 10.934 4.76997 10.577C4.97619 10.22 5.357 10.0001 5.76926 10.0001V10.0001ZM14.2307 10.0001C14.643 10.0001 15.0238 10.22 15.23 10.577C15.4361 10.934 15.4361 11.3739 15.23 11.7308C15.0238 12.0878 14.643 12.3078 14.2307 12.3078C13.8185 12.3078 13.4376 12.0878 13.2314 11.7308C13.0254 11.3739 13.0254 10.934 13.2314 10.577C13.4376 10.22 13.8185 10.0001 14.2307 10.0001ZM9.99999 16.9231C10.8161 16.9231 11.5987 16.5989 12.1756 16.0218C12.7527 15.4449 13.0769 14.6623 13.0769 13.8462H6.9231C6.9231 14.6623 7.24727 15.4449 7.82436 16.0218C8.40128 16.5989 9.18391 16.9231 9.99999 16.9231Z" fill="white"/>
</svg>
