<svg width="24" height="24" viewBox="0 0 24 24" fill="none" xmlns="http://www.w3.org/2000/svg">
<g clip-path="url(#clip0_8540_900)">
<path d="M10.0843 18.72L9.30165 20.16H2.08698V0H20.8696V12.6274L19.3044 12V1.44H3.65219V18.72H10.0843ZM6.78263 10.08H5.21741V8.64H6.78263V10.08ZM17.7392 10.08H8.34785V8.64H17.7392V10.08ZM5.21741 12.96H6.78263V14.4H5.21741V12.96ZM8.34785 12.96H13.2147L12.4321 14.4H8.34785V12.96ZM6.78263 5.76H5.21741V4.32H6.78263V5.76ZM17.7392 5.76H8.34785V4.32H17.7392V5.76Z" fill="white"/>
<path d="M21.9519 18.3173C21.936 18.739 21.8743 19.1528 21.7669 19.5586C21.6595 19.9644 21.4964 20.3304 21.2775 20.6567C21.0627 20.9829 20.7882 21.2435 20.454 21.4385C20.1237 21.6294 19.7259 21.7249 19.2604 21.7249C19.0097 21.7249 18.779 21.6812 18.5681 21.5936C18.3612 21.5061 18.1822 21.3808 18.031 21.2177C17.8838 21.0545 17.7704 20.8576 17.6908 20.6268C17.6152 20.3961 17.5854 20.1375 17.6013 19.851L17.9057 16.3479H19.2485L18.9501 19.851C18.9302 20.0181 18.9322 20.1554 18.956 20.2628C18.9839 20.3702 19.0257 20.4538 19.0814 20.5135C19.141 20.5731 19.2087 20.6169 19.2843 20.6447C19.3638 20.6686 19.4434 20.6806 19.523 20.6806C19.6941 20.6806 19.8512 20.6229 19.9944 20.5075C20.1416 20.3921 20.269 20.231 20.3764 20.0241C20.4878 19.8132 20.5753 19.5685 20.639 19.29C20.7026 19.0076 20.7384 18.7032 20.7464 18.377C20.7703 17.8796 20.7444 17.4181 20.6688 16.9924C20.5932 16.5627 20.4639 16.1768 20.2809 15.8346C20.1019 15.4925 19.8691 15.202 19.5827 14.9633C19.2962 14.7206 18.956 14.5356 18.5621 14.4083C18.1683 14.277 17.7167 14.2114 17.2074 14.2114C16.726 14.2114 16.2824 14.287 15.8766 14.4382C15.4708 14.5893 15.1067 14.8062 14.7845 15.0887C14.4662 15.3672 14.1917 15.6994 13.9609 16.0853C13.7341 16.4712 13.5551 16.8989 13.4238 17.3684C13.2925 17.8379 13.2149 18.3372 13.1911 18.8663C13.1632 19.4392 13.193 19.9565 13.2806 20.418C13.3721 20.8755 13.5173 21.2754 13.7162 21.6175C13.9152 21.9637 14.1638 22.2501 14.4622 22.4769C14.7606 22.7076 15.1067 22.8807 15.5006 22.9961C15.8985 23.1115 16.3381 23.1692 16.8195 23.1692C17.1657 23.1692 17.5178 23.1314 17.8758 23.0558C18.2379 22.9802 18.5442 22.8887 18.7949 22.7813L19.0217 23.7719C18.7432 23.951 18.395 24.0842 17.9773 24.1718C17.5595 24.2593 17.1657 24.3031 16.7957 24.3031C16.1511 24.3031 15.5643 24.2295 15.0351 24.0822C14.506 23.935 14.0385 23.7142 13.6327 23.4198C13.2308 23.1254 12.8946 22.7594 12.6241 22.3217C12.3575 21.8881 12.1606 21.3828 12.0333 20.8059C11.906 20.229 11.8562 19.5825 11.8841 18.8663C11.9119 18.2138 12.0134 17.6011 12.1884 17.0282C12.3635 16.4513 12.6042 15.9281 12.9106 15.4587C13.2209 14.9892 13.5909 14.5854 14.0206 14.2472C14.4503 13.905 14.9337 13.6424 15.4708 13.4594C16.0119 13.2764 16.5987 13.1849 17.2313 13.1849C17.8599 13.1849 18.4289 13.2645 18.9381 13.4236C19.4514 13.5828 19.9009 13.8135 20.2869 14.1159C20.6728 14.4143 20.9931 14.7743 21.2477 15.1961C21.5063 15.6178 21.6933 16.0913 21.8087 16.6164C21.928 17.1416 21.9758 17.7086 21.9519 18.3173ZM15.9781 18.9976C15.9582 19.2522 15.9582 19.479 15.9781 19.678C16.0019 19.8729 16.0437 20.036 16.1034 20.1673C16.167 20.2986 16.2486 20.3981 16.3481 20.4657C16.4515 20.5333 16.5729 20.5672 16.7121 20.5672C16.7797 20.5672 16.8573 20.5513 16.9449 20.5194C17.0324 20.4836 17.1219 20.4219 17.2134 20.3344C17.3049 20.2429 17.3944 20.1156 17.482 19.9525C17.5695 19.7854 17.6451 19.5685 17.7087 19.302L18.2638 19.9823C18.1722 20.2688 18.0608 20.5194 17.9296 20.7343C17.7983 20.9491 17.6471 21.1281 17.476 21.2714C17.3089 21.4146 17.1219 21.522 16.915 21.5936C16.7121 21.6653 16.4893 21.7011 16.2466 21.7011C15.9562 21.7011 15.6936 21.6374 15.4588 21.5101C15.2281 21.3828 15.0331 21.2018 14.874 20.967C14.7149 20.7283 14.5995 20.4438 14.5279 20.1136C14.4602 19.7794 14.4463 19.4074 14.4861 18.9976C14.5338 18.5958 14.6154 18.2238 14.7308 17.8816C14.8501 17.5395 14.9973 17.2351 15.1724 16.9685C15.3474 16.698 15.5484 16.4672 15.7751 16.2763C16.0019 16.0853 16.2486 15.9401 16.5152 15.8406C16.7857 15.7411 17.0702 15.6914 17.3686 15.6914C17.842 15.6914 18.212 15.759 18.4786 15.8943C18.7491 16.0256 19.0058 16.1768 19.2485 16.3479L18.592 17.2789C18.4766 17.1754 18.3254 17.076 18.1384 16.9805C17.9554 16.881 17.7366 16.8313 17.482 16.8313C17.2432 16.8313 17.0383 16.879 16.8673 16.9745C16.6962 17.066 16.551 17.2053 16.4316 17.3923C16.3123 17.5753 16.2148 17.802 16.1392 18.0726C16.0676 18.3392 16.0139 18.6475 15.9781 18.9976Z" fill="white"/>
</g>
<defs>
<clipPath id="clip0_8540_900">
<rect width="24" height="24" fill="white"/>
</clipPath>
</defs>
</svg>
