<svg width="18" height="29" viewBox="0 0 18 29" fill="none" xmlns="http://www.w3.org/2000/svg">
<path d="M16.9491 1.55718C15.5786 1.44292 15.5403 1.44292 15.5403 1.44292C15.4641 1.44292 15.4261 1.44292 14.893 1.67143L14.6645 1.78569V1.86194C11.9614 0.110344 9.41049 0.643379 8.03938 1.21441V0.947896L6.44028 0.795634L5.67875 1.02415V11.4187L0.310217 13.6271C0.233966 13.6651 -0.0325508 13.7793 0.00569357 14.1981C-0.0323116 14.4646 0.119949 14.8074 0.462472 14.8834V27.1436L1.90934 27.4101L2.89941 26.8771V23.6026L5.64083 22.1178V24.3262L7.16393 24.5547L8.00152 24.0597V17.7013L9.67687 17.8916L9.71487 28.4764L11.352 28.6667L12.1896 28.1336V24.7832L14.6644 23.4126V25.5828L16.3778 25.8493L17.3296 25.3162L17.3298 1.59614L16.9491 1.55718ZM14.6647 20.9749L12.1899 22.3837L12.1519 17.891L14.6647 16.4822L14.6647 20.9749ZM12.1519 16.9772V15.9111L16.5304 13.5885V14.5023L12.1519 16.9772ZM15.5786 2.20445C15.7308 2.20445 16.2259 2.24246 16.5304 2.2807V12.1423L15.3881 12.028V2.28088C15.4643 2.24287 15.5403 2.24246 15.5786 2.20445ZM8.03983 8.52488L14.665 9.24816V11.9133L8.03983 11.1518V8.52488ZM6.40297 1.55748L6.47922 1.51948L7.24075 1.59573V11.0381L6.74572 10.9996H6.63147L6.40295 11.0759L6.40297 1.55748ZM5.67943 19.719L2.93825 21.2041V17.0919L5.67967 17.4346L5.67943 19.719ZM1.79594 26.6103L1.2249 26.4961V14.9591L2.17673 15.0734V26.4194L1.79594 26.6103ZM2.93825 22.7266V22.0793L5.67967 20.5944V21.2417L2.93825 22.7266ZM7.24053 23.6404L7.01202 23.7927L6.44099 23.7164V17.5104L7.24051 17.6247L7.24053 23.6404ZM2.93825 16.3305V15.1882L9.71516 15.9877V17.1301L2.93825 16.3305ZM11.1623 27.8669L10.477 27.7906L10.439 16.064L11.2766 16.1782H11.3909V17.6633L11.4289 27.7152L11.1623 27.8669ZM12.1904 23.9071V23.2599L14.6653 21.8893V22.5366L12.1904 23.9071ZM16.2261 25.0115L15.4266 24.8972V16.0257L16.5689 15.3784V24.8208L16.2261 25.0115Z" fill="#3E8277"/>
</svg>
