<svg width="19" height="29" viewBox="0 0 19 29" fill="none" xmlns="http://www.w3.org/2000/svg">
<path d="M17.7825 1.55727C16.4119 1.44301 16.3737 1.44301 16.3737 1.44301C16.2975 1.44301 16.2594 1.44301 15.7264 1.67152L15.4979 1.78578V1.86203C12.7947 0.110435 10.2439 0.64347 8.87276 1.21451V0.947988L7.27365 0.795726L6.51213 1.02424V11.4188L1.14359 13.6271C1.06734 13.6652 0.800823 13.7794 0.839068 14.1982C0.801062 14.4647 0.953323 14.8075 1.29585 14.8835V27.1437L2.74271 27.4102L3.73278 26.8772V23.6027L6.4742 22.1179V24.3263L7.99731 24.5548L8.83489 24.0597V17.7014L10.5102 17.8917L10.5482 28.4765L12.1854 28.6667L13.0229 28.1337V24.7833L15.4978 23.4127V25.5828L17.2112 25.8494L18.163 25.3163L18.1632 1.59623L17.7825 1.55727ZM15.4981 20.975L13.0232 22.3838L12.9852 17.8911L15.4981 16.4823L15.4981 20.975ZM12.9852 16.9773V15.9112L17.3638 13.5886V14.5024L12.9852 16.9773ZM16.4119 2.20455C16.5642 2.20455 17.0592 2.24255 17.3638 2.2808V12.1423L16.2215 12.0281V2.28097C16.2977 2.24296 16.3737 2.24255 16.4119 2.20455ZM8.87321 8.52497L15.4984 9.24825V11.9134L8.87321 11.1519V8.52497ZM7.23635 1.55757L7.3126 1.51957L8.07412 1.59582V11.0382L7.5791 10.9997H7.46484L7.23633 11.076L7.23635 1.55757ZM6.5128 19.7191L3.77162 21.2042V17.092L6.51304 17.4347L6.5128 19.7191ZM2.62931 26.6104L2.05827 26.4962V14.9592L3.0101 15.0735V26.4195L2.62931 26.6104ZM3.77162 22.7267V22.0794L6.51304 20.5945V21.2418L3.77162 22.7267ZM8.07391 23.6405L7.8454 23.7928L7.27436 23.7165V17.5105L8.07388 17.6248L8.07391 23.6405ZM3.77162 16.3306V15.1883L10.5485 15.9878V17.1301L3.77162 16.3306ZM11.9957 27.867L11.3104 27.7907L11.2724 16.0641L12.11 16.1783H12.2243V17.6634L12.2623 27.7153L11.9957 27.867ZM13.0238 23.9072V23.26L15.4986 21.8894V22.5367L13.0238 23.9072ZM17.0595 25.0116L16.26 24.8973V16.0258L17.4023 15.3785V24.8209L17.0595 25.0116Z" fill="#3E8277"/>
</svg>
