<svg width="48" height="48" viewBox="0 0 48 48" fill="none" xmlns="http://www.w3.org/2000/svg">
<path d="M37.4237 5.33578C35.3679 5.16439 35.3105 5.16439 35.3105 5.16439C35.1961 5.16439 35.1391 5.16439 34.3396 5.50716L33.9968 5.67855V5.79292C29.942 3.16553 26.1157 3.96508 24.0591 4.82164V4.42186L21.6604 4.19347L20.5181 4.53623V20.128L12.4653 23.4406C12.3509 23.4976 11.9512 23.669 12.0085 24.2971C11.9515 24.6969 12.1799 25.2111 12.6937 25.3251V43.7154L14.864 44.1152L16.3491 43.3157V38.404L20.4612 36.1767V39.4893L22.7459 39.832L24.0023 39.0895V29.552L26.5153 29.8374L26.5723 45.7146L29.028 46L30.2843 45.2005V40.1748L33.9966 38.1189V41.3741L36.5667 41.7739L37.9944 40.9744L37.9948 5.39423L37.4237 5.33578ZM33.9971 34.4624L30.2848 36.5756L30.2278 29.8365L33.9971 27.7233L33.9971 34.4624ZM30.2278 28.4658V26.8667L36.7956 23.3828V24.7535L30.2278 28.4658ZM35.3679 6.3067C35.5963 6.3067 36.3388 6.3637 36.7956 6.42107V21.2134L35.0821 21.042V6.42133C35.1965 6.36432 35.3105 6.36371 35.3679 6.3067ZM24.0598 15.7873L33.9975 16.8723V20.87L24.0598 19.7277V15.7873ZM21.6045 5.33624L21.7188 5.27923L22.8611 5.39361V19.5572L22.1186 19.4995H21.9472L21.6044 19.6138L21.6045 5.33624ZM20.5191 32.5785L16.4074 34.8062V28.6378L20.5195 29.152L20.5191 32.5785ZM14.6939 42.9155L13.8374 42.7441V25.4387L15.2651 25.6101V42.6291L14.6939 42.9155ZM16.4074 37.0899V36.119L20.5195 33.8917V34.8626L16.4074 37.0899ZM22.8608 38.4606L22.518 38.689L21.6615 38.5747V29.2657L22.8608 29.437L22.8608 38.4606ZM16.4074 27.4958V25.7823L26.5727 26.9816V28.6951L16.4074 27.4958ZM28.7435 44.8003L27.7156 44.686L27.6586 27.096L28.9149 27.2674H29.0863V29.495L29.1433 44.5728L28.7435 44.8003ZM30.2856 38.8607V37.8898L33.9979 35.834V36.8049L30.2856 38.8607ZM36.3392 40.5172L35.1399 40.3458V27.0386L36.8534 26.0677V40.2313L36.3392 40.5172Z" fill="#3E8277"/>
</svg>
