<svg width="21" height="25" viewBox="0 0 21 25" fill="none" xmlns="http://www.w3.org/2000/svg">
<path d="M4.075 12.5001C3.86945 12.5001 3.67233 12.5817 3.52699 12.7271C3.38165 12.8724 3.3 13.0696 3.3 13.2751C3.3 13.4806 3.38165 13.6778 3.52699 13.8231C3.67233 13.9684 3.86945 14.0501 4.075 14.0501C4.28054 14.0501 4.47766 13.9684 4.623 13.8231C4.76834 13.6778 4.85 13.4806 4.85 13.2751C4.85 13.0696 4.76834 12.8724 4.623 12.7271C4.47766 12.5817 4.28054 12.5001 4.075 12.5001ZM3.3 16.3751C3.3 16.1696 3.38165 15.9724 3.52699 15.8271C3.67233 15.6817 3.86945 15.6001 4.075 15.6001C4.28054 15.6001 4.47766 15.6817 4.623 15.8271C4.76834 15.9724 4.85 16.1696 4.85 16.3751C4.85 16.5806 4.76834 16.7778 4.623 16.9231C4.47766 17.0684 4.28054 17.1501 4.075 17.1501C3.86945 17.1501 3.67233 17.0684 3.52699 16.9231C3.38165 16.7778 3.3 16.5806 3.3 16.3751ZM6.4 13.2751C6.4 13.0696 6.48165 12.8724 6.62699 12.7271C6.77233 12.5817 6.96945 12.5001 7.175 12.5001H13.375C13.5805 12.5001 13.7777 12.5817 13.923 12.7271C14.0683 12.8724 14.15 13.0696 14.15 13.2751C14.15 13.4806 14.0683 13.6778 13.923 13.8231C13.7777 13.9684 13.5805 14.0501 13.375 14.0501H7.175C6.96945 14.0501 6.77233 13.9684 6.62699 13.8231C6.48165 13.6778 6.4 13.4806 6.4 13.2751ZM7.175 15.6001C6.96945 15.6001 6.77233 15.6817 6.62699 15.8271C6.48165 15.9724 6.4 16.1696 6.4 16.3751C6.4 16.5806 6.48165 16.7778 6.62699 16.9231C6.77233 17.0684 6.96945 17.1501 7.175 17.1501H13.375C13.5805 17.1501 13.7777 17.0684 13.923 16.9231C14.0683 16.7778 14.15 16.5806 14.15 16.3751C14.15 16.1696 14.0683 15.9724 13.923 15.8271C13.7777 15.6817 13.5805 15.6001 13.375 15.6001H7.175ZM3.3 0.100098C2.47783 0.100098 1.68933 0.426704 1.10797 1.00807C0.526603 1.58943 0.199997 2.37793 0.199997 3.2001V18.7001C0.199997 19.5223 0.526603 20.3108 1.10797 20.8921C1.68933 21.4735 2.47783 21.8001 3.3 21.8001H14.15C14.9722 21.8001 15.7607 21.4735 16.342 20.8921C16.9234 20.3108 17.25 19.5223 17.25 18.7001V8.4918C17.2495 7.87538 17.0041 7.2844 16.568 6.8488L10.5013 0.780547C10.0654 0.344969 9.4745 0.100229 8.8583 0.100098H3.3ZM1.75 3.2001C1.75 2.78901 1.9133 2.39476 2.20398 2.10408C2.49466 1.8134 2.88891 1.6501 3.3 1.6501H7.95V7.0751C7.95 7.69173 8.19495 8.2831 8.63097 8.71912C9.067 9.15514 9.65837 9.4001 10.275 9.4001H15.7V18.7001C15.7 19.1112 15.5367 19.5054 15.246 19.7961C14.9553 20.0868 14.5611 20.2501 14.15 20.2501H3.3C2.88891 20.2501 2.49466 20.0868 2.20398 19.7961C1.9133 19.5054 1.75 19.1112 1.75 18.7001V3.2001ZM9.5 7.0751V1.97095L15.3791 7.8501H10.275C10.0695 7.8501 9.87233 7.76845 9.72699 7.62311C9.58165 7.47777 9.5 7.28064 9.5 7.0751ZM18.8 9.4001C19.2111 9.4001 19.6053 9.5634 19.896 9.85408C20.1867 10.1448 20.35 10.539 20.35 10.9501V18.7931C20.35 19.5951 20.192 20.3892 19.8851 21.1301C19.5782 21.8711 19.1284 22.5443 18.5613 23.1114C17.9942 23.6785 17.321 24.1283 16.58 24.4352C15.8391 24.7421 15.045 24.9001 14.243 24.9001H4.85C4.43891 24.9001 4.04466 24.7368 3.75398 24.4461C3.4633 24.1554 3.3 23.7612 3.3 23.3501H14.15C15.3833 23.3501 16.566 22.8602 17.438 21.9881C18.3101 21.1161 18.8 19.9334 18.8 18.7001V9.4001Z" fill="#3E8277"/>
</svg>
