<svg width="24" height="24" viewBox="0 0 24 24" fill="none" xmlns="http://www.w3.org/2000/svg">
<path d="M13.5 14.25H22.5V15.75H13.5V14.25ZM13.5 17.25H22.5V18.75H13.5V17.25ZM13.5 20.25H19.5V21.75H13.5V20.25Z" fill="white"/>
<path d="M18 3C17.3367 3.00197 16.6928 3.22393 16.1692 3.6311C15.6456 4.03827 15.2718 4.60764 15.1065 5.25H9V3H3V9H9V6.75H15.1065C15.1764 7.01845 15.2837 7.27572 15.4253 7.51425L7.51425 15.4252C7.05701 15.1497 6.53384 15.0028 6 15C5.43843 14.9979 4.88754 15.1535 4.41002 15.449C3.93249 15.7445 3.5475 16.1682 3.29886 16.6717C3.05021 17.1752 2.94789 17.7384 3.00354 18.2972C3.05918 18.8561 3.27056 19.388 3.61362 19.8326C3.95668 20.2773 4.41765 20.6166 4.94408 20.8122C5.47051 21.0078 6.04125 21.0516 6.59138 20.9388C7.14152 20.826 7.64894 20.5611 8.05592 20.1741C8.4629 19.7872 8.7531 19.2937 8.8935 18.75H12V17.25H8.8935C8.82365 16.9816 8.71635 16.7243 8.57475 16.4857L16.4858 8.57475C16.943 8.85028 17.4662 8.9972 18 9C18.7957 9 19.5587 8.68393 20.1213 8.12132C20.6839 7.55871 21 6.79565 21 6C21 5.20435 20.6839 4.44129 20.1213 3.87868C19.5587 3.31607 18.7957 3 18 3ZM7.5 7.5H4.5V4.5H7.5V7.5ZM6 19.5C5.70333 19.5 5.41332 19.412 5.16665 19.2472C4.91997 19.0824 4.72772 18.8481 4.61418 18.574C4.50065 18.2999 4.47095 17.9983 4.52882 17.7074C4.5867 17.4164 4.72956 17.1491 4.93934 16.9393C5.14912 16.7296 5.4164 16.5867 5.70737 16.5288C5.99834 16.4709 6.29994 16.5006 6.57403 16.6142C6.84812 16.7277 7.08239 16.92 7.24721 17.1666C7.41203 17.4133 7.5 17.7033 7.5 18C7.49961 18.3977 7.34144 18.779 7.06022 19.0602C6.77901 19.3414 6.39771 19.4996 6 19.5ZM18 7.5C17.7033 7.5 17.4133 7.41203 17.1666 7.2472C16.92 7.08238 16.7277 6.84811 16.6142 6.57402C16.5007 6.29994 16.4709 5.99834 16.5288 5.70736C16.5867 5.41639 16.7296 5.14912 16.9393 4.93934C17.1491 4.72956 17.4164 4.5867 17.7074 4.52882C17.9983 4.47094 18.2999 4.50065 18.574 4.61418C18.8481 4.72771 19.0824 4.91997 19.2472 5.16664C19.412 5.41332 19.5 5.70333 19.5 6C19.4996 6.3977 19.3414 6.779 19.0602 7.06022C18.779 7.34144 18.3977 7.4996 18 7.5Z" fill="white"/>
</svg>
