<svg width="24" height="24" viewBox="0 0 24 24" fill="none" xmlns="http://www.w3.org/2000/svg">
<path d="M7.18941 5.99382L7.5342 6.10837L10.9205 7.23337L10.9209 7.23353C10.9723 7.25064 11.0277 7.25064 11.0791 7.23353L11.0795 7.23337L14.4658 6.10837L14.8103 5.99391L15.0258 6.28607C15.659 7.14456 16.0005 8.18339 16 9.25015L7.18941 5.99382ZM7.18941 5.99382L6.97396 6.28637M7.18941 5.99382L6.97396 6.28637M6.97396 6.28637C6.50521 6.92287 6.19406 7.66144 6.06602 8.44147C5.93799 9.22151 5.99672 10.0208 6.23741 10.7737C6.47809 11.5267 6.89386 12.2118 7.45061 12.773C8.00737 13.3341 8.68923 13.7552 9.44026 14.0018C10.1913 14.2484 10.9901 14.3134 11.7711 14.1915C12.5521 14.0696 13.2931 13.7643 13.9333 13.3005C14.5734 12.8368 15.0945 12.2279 15.4538 11.5238C15.813 10.8198 16.0002 10.0406 16 9.25029L6.97396 6.28637ZM16.3516 10.5054C16.0296 11.8776 15.1936 13.072 14.0189 13.8444H13.2114L13.6749 14.5778C13.675 14.5788 13.6752 14.58 13.6754 14.5811C13.6798 14.6129 13.6821 14.6578 13.6815 14.711C13.6808 14.7624 13.6776 14.8115 13.6745 14.8483C13.6729 14.8664 13.6714 14.8807 13.6704 14.8899L13.6693 14.8996L13.6692 14.9002L13.6692 14.9003L13.6692 14.9005L13.6691 14.9007L13.6691 14.901L13.6691 14.9011L13.665 14.9324V14.9648V14.9945C13.5049 14.9884 13.3986 14.978 13.3202 14.9664C13.2305 14.9531 13.1787 14.9394 13.1007 14.9189C13.0686 14.9105 13.0321 14.9009 12.9867 14.8896C12.6738 14.8123 12.2501 14.7501 11 14.7501C8.34451 14.7501 5.95952 16.085 4.45925 18.3867L4.45921 18.3867L4.45547 18.3926C4.43776 18.4206 4.41467 18.4448 4.38754 18.4638C4.3604 18.4828 4.32975 18.4963 4.29738 18.5033C4.26501 18.5104 4.23156 18.5109 4.19897 18.5049C4.16638 18.4989 4.13531 18.4865 4.10756 18.4684C4.07981 18.4503 4.05593 18.4269 4.03732 18.3995C4.01871 18.3721 4.00573 18.3413 3.99914 18.3088C3.99254 18.2763 3.99247 18.2429 3.99892 18.2104C4.00537 18.1779 4.01822 18.147 4.03672 18.1195L4.03676 18.1195L4.04076 18.1134C5.05381 16.5591 6.43195 15.4318 8.01757 14.8099L8.94585 14.4458L8.09882 13.9197C6.86097 13.1508 5.97883 11.9221 5.64611 10.5034C5.31338 9.08471 5.55727 7.59195 6.32421 6.3529L6.65701 5.81523L6.05709 5.61537L2.90803 4.56631L2.25 4.3471V5.04068V11.5001C2.25 11.5664 2.22366 11.6299 2.17678 11.6768C2.12989 11.7237 2.0663 11.7501 2 11.7501C1.9337 11.7501 1.87011 11.7237 1.82322 11.6768C1.77634 11.6299 1.75 11.5664 1.75 11.5001V4.00006V4.00002C1.75 3.94755 1.7665 3.8964 1.79718 3.85383C1.82786 3.81127 1.87115 3.77943 1.92093 3.76283C1.92093 3.76283 1.92093 3.76283 1.92094 3.76283L10.9209 0.762835L10.9209 0.762831C10.9723 0.745723 11.0277 0.745723 11.0791 0.762831L11.0791 0.762835L19.7372 3.64887V3.65364L20.0792 3.76756C20.129 3.78414 20.1723 3.81598 20.203 3.85854C20.2337 3.90111 20.2502 3.95226 20.2502 4.00474C20.2502 4.05722 20.2337 4.10837 20.203 4.15094C20.1723 4.19351 20.129 4.22534 20.0792 4.24193L20.0791 4.24194L15.9429 5.62007L15.3434 5.8198L15.6756 6.3573C16.4412 7.59599 16.6843 9.08773 16.3516 10.5054ZM13.6712 14.5589C13.6712 14.5588 13.6715 14.5598 13.672 14.5621C13.6714 14.5601 13.6711 14.5589 13.6712 14.5589ZM13.6518 15.1984C13.6518 15.1983 13.652 15.1978 13.6523 15.197L13.6518 15.1984ZM10.8419 6.68408L11 6.7368L11.1581 6.68408L17.7863 4.47439L19.2091 4.00006L17.7863 3.52572L11.1581 1.31603L11 1.26331L10.8419 1.31603L4.21374 3.52572L2.79094 4.00006L4.21374 4.47439L10.8419 6.68408Z" stroke="#FFFFFF"/>
<mask id="path-2-inside-1_10040_67463" fill="white">
<path d="M22.0784 21.5938L23.3125 20.3597L22.8278 19.875L21.5938 21.1091L20.3597 19.875L19.875 20.3597L21.1091 21.5938L19.875 22.8278L20.3597 23.3125L21.5938 22.0784L22.8278 23.3125L23.3125 22.8278L22.0784 21.5938Z"/>
</mask>
<path d="M22.0784 21.5938L23.3125 20.3597L22.8278 19.875L21.5938 21.1091L20.3597 19.875L19.875 20.3597L21.1091 21.5938L19.875 22.8278L20.3597 23.3125L21.5938 22.0784L22.8278 23.3125L23.3125 22.8278L22.0784 21.5938Z" fill="#FFFFFF"/>
<path d="M22.0784 21.5938L21.5481 21.0634L21.0178 21.5938L21.5481 22.1241L22.0784 21.5938ZM23.3125 20.3597L23.8428 20.89L24.3732 20.3597L23.8428 19.8294L23.3125 20.3597ZM22.8278 19.875L23.3581 19.3447L22.8278 18.8143L22.2975 19.3447L22.8278 19.875ZM21.5938 21.1091L21.0634 21.6394L21.5938 22.1697L22.1241 21.6394L21.5938 21.1091ZM20.3597 19.875L20.89 19.3447L20.3597 18.8143L19.8294 19.3447L20.3597 19.875ZM19.875 20.3597L19.3447 19.8294L18.8143 20.3597L19.3447 20.89L19.875 20.3597ZM21.1091 21.5938L21.6394 22.1241L22.1697 21.5938L21.6394 21.0634L21.1091 21.5938ZM19.875 22.8278L19.3447 22.2975L18.8143 22.8278L19.3447 23.3581L19.875 22.8278ZM20.3597 23.3125L19.8294 23.8428L20.3597 24.3732L20.89 23.8428L20.3597 23.3125ZM21.5938 22.0784L22.1241 21.5481L21.5938 21.0178L21.0634 21.5481L21.5938 22.0784ZM22.8278 23.3125L22.2975 23.8428L22.8278 24.3732L23.3581 23.8428L22.8278 23.3125ZM23.3125 22.8278L23.8428 23.3581L24.3732 22.8278L23.8428 22.2975L23.3125 22.8278ZM22.6088 22.1241L23.8428 20.89L22.7822 19.8294L21.5481 21.0634L22.6088 22.1241ZM23.8428 19.8294L23.3581 19.3447L22.2975 20.4053L22.7822 20.89L23.8428 19.8294ZM22.2975 19.3447L21.0634 20.5787L22.1241 21.6394L23.3581 20.4053L22.2975 19.3447ZM22.1241 20.5787L20.89 19.3447L19.8294 20.4053L21.0634 21.6394L22.1241 20.5787ZM19.8294 19.3447L19.3447 19.8294L20.4053 20.89L20.89 20.4053L19.8294 19.3447ZM19.3447 20.89L20.5787 22.1241L21.6394 21.0634L20.4053 19.8294L19.3447 20.89ZM20.5787 21.0634L19.3447 22.2975L20.4053 23.3581L21.6394 22.1241L20.5787 21.0634ZM19.3447 23.3581L19.8294 23.8428L20.89 22.7822L20.4053 22.2975L19.3447 23.3581ZM20.89 23.8428L22.1241 22.6088L21.0634 21.5481L19.8294 22.7822L20.89 23.8428ZM21.0634 22.6088L22.2975 23.8428L23.3581 22.7822L22.1241 21.5481L21.0634 22.6088ZM23.3581 23.8428L23.8428 23.3581L22.7822 22.2975L22.2975 22.7822L23.3581 23.8428ZM23.8428 22.2975L22.6088 21.0634L21.5481 22.1241L22.7822 23.3581L23.8428 22.2975Z" fill="#FFFFFF" mask="url(#path-2-inside-1_10040_67463)"/>
<path d="M21.5938 14.7188H20.5625V14.375C20.562 14.1928 20.4893 14.0183 20.3605 13.8895C20.2317 13.7607 20.0572 13.688 19.875 13.6875H17.125C16.9428 13.688 16.7683 13.7607 16.6395 13.8895C16.5107 14.0183 16.438 14.1928 16.4375 14.375V14.7188H15.4062C15.2241 14.7193 15.0495 14.7919 14.9207 14.9207C14.7919 15.0495 14.7193 15.2241 14.7188 15.4062V22.625C14.7193 22.8072 14.7919 22.9817 14.9207 23.1105C15.0495 23.2393 15.2241 23.312 15.4062 23.3125H18.5V22.625H15.4062V15.4062H16.4375V16.4375H20.5625V15.4062H21.5938V18.8438H22.2812V15.4062C22.2807 15.2241 22.2081 15.0495 22.0793 14.9207C21.9505 14.7919 21.7759 14.7193 21.5938 14.7188ZM19.875 15.75H17.125V14.375H19.875V15.75Z" fill="#FFFFFF"/>
</svg>
