<svg width="35" height="35" viewBox="0 0 35 35" fill="none" xmlns="http://www.w3.org/2000/svg">
<circle cx="17.5" cy="17.5" r="16" stroke="#3E8277" stroke-width="3"/>
<path d="M8.36594 21.4489V14.4091H10.1458V21.4489H8.36594ZM5.73597 18.8189V17.0391H12.7757V18.8189H5.73597ZM19.2686 12.8182V23H17.1159V14.8615H17.0563L14.7246 16.3232V14.4141L17.2452 12.8182H19.2686ZM25.6808 23.2237C24.8256 23.2204 24.0898 23.0099 23.4734 22.5923C22.8602 22.1747 22.3879 21.5698 22.0565 20.7777C21.7283 19.9856 21.5659 19.0327 21.5692 17.919C21.5692 16.8087 21.7333 15.8625 22.0614 15.0803C22.3929 14.2981 22.8652 13.7031 23.4783 13.2955C24.0948 12.8845 24.829 12.679 25.6808 12.679C26.5326 12.679 27.265 12.8845 27.8782 13.2955C28.4947 13.7064 28.9686 14.303 29.3001 15.0852C29.6315 15.8641 29.7956 16.8087 29.7923 17.919C29.7923 19.036 29.6265 19.9905 29.2951 20.7827C28.967 21.5748 28.4963 22.1797 27.8832 22.5973C27.27 23.0149 26.5359 23.2237 25.6808 23.2237ZM25.6808 21.4389C26.2641 21.4389 26.7298 21.1456 27.0778 20.5589C27.4258 19.9723 27.5981 19.0923 27.5948 17.919C27.5948 17.1468 27.5153 16.5038 27.3562 15.9901C27.2004 15.4763 26.9783 15.0902 26.69 14.8317C26.4049 14.5732 26.0685 14.4439 25.6808 14.4439C25.1007 14.4439 24.6367 14.7339 24.2887 15.3139C23.9407 15.8939 23.765 16.7623 23.7617 17.919C23.7617 18.7012 23.8396 19.3542 23.9954 19.8778C24.1545 20.3982 24.3782 20.7893 24.6665 21.0511C24.9549 21.3097 25.293 21.4389 25.6808 21.4389Z" fill="#3E8277"/>
</svg>
