<svg width="20" height="20" viewBox="0 0 20 20" fill="none" xmlns="http://www.w3.org/2000/svg">
<path d="M1.5 2.25V18.5H3V4.5H17.728C17.9281 4.4928 18.1175 4.40826 18.2565 4.26418C18.3955 4.12009 18.4732 3.9277 18.4732 3.7275C18.4732 3.5273 18.3955 3.33491 18.2565 3.19082C18.1175 3.04674 17.9281 2.9622 17.728 2.955H3V2.205C3 2.01802 2.92572 1.8387 2.79351 1.70649C2.6613 1.57428 2.48198 1.5 2.295 1.5H2.25C2.05109 1.5 1.86032 1.57902 1.71967 1.71967C1.57902 1.86032 1.5 2.05109 1.5 2.25ZM20 3.728C20.0002 4.09975 19.9092 4.46588 19.7348 4.79421C19.5605 5.12253 19.3081 5.40301 19 5.611V13.25C19 14.2446 18.6049 15.1984 17.9017 15.9017C17.1984 16.6049 16.2446 17 15.25 17H6.75C5.93842 17.0012 5.14857 16.7379 4.5 16.25V18.75C4.5 19.44 3.94 20 3.25 20H1.25C0.56 20 0 19.44 0 18.75V2.25C0 1.65326 0.237053 1.08097 0.65901 0.65901C1.08097 0.237053 1.65326 0 2.25 0H2.295C3.249 0 4.062 0.606 4.369 1.455H17.728C18.0264 1.455 18.322 1.5138 18.5977 1.62804C18.8734 1.74228 19.1239 1.90973 19.3349 2.12081C19.5459 2.33189 19.7132 2.58247 19.8273 2.85824C19.9415 3.134 20.0001 3.42955 20 3.728ZM4.5 6V13.25C4.5 13.8467 4.73705 14.419 5.15901 14.841C5.58097 15.2629 6.15326 15.5 6.75 15.5H15.25C15.8467 15.5 16.419 15.2629 16.841 14.841C17.2629 14.419 17.5 13.8467 17.5 13.25V6H4.5ZM7.5 10.46C7.49999 10.3156 7.53127 10.1728 7.59169 10.0416C7.65211 9.91044 7.74023 9.79389 7.85 9.7L10.675 7.28C10.7656 7.20254 10.8808 7.15997 11 7.15997C11.1192 7.15997 11.2344 7.20254 11.325 7.28L14.151 9.7C14.2606 9.79398 14.3485 9.91057 14.4088 10.0418C14.469 10.173 14.5001 10.3156 14.5 10.46V13.5C14.5 13.6326 14.4473 13.7598 14.3536 13.8536C14.2598 13.9473 14.1326 14 14 14H12.25C12.1837 14 12.1201 13.9737 12.0732 13.9268C12.0263 13.8799 12 13.8163 12 13.75V12.5C12 12.3674 11.9473 12.2402 11.8536 12.1464C11.7598 12.0527 11.6326 12 11.5 12H10.5C10.3674 12 10.2402 12.0527 10.1464 12.1464C10.0527 12.2402 10 12.3674 10 12.5V13.75C10 13.8163 9.97366 13.8799 9.92678 13.9268C9.87989 13.9737 9.8163 14 9.75 14H8C7.86739 14 7.74021 13.9473 7.64645 13.8536C7.55268 13.7598 7.5 13.6326 7.5 13.5V10.46Z" fill="white"/>
</svg>
