<svg width="24" height="24" viewBox="0 0 24 24" fill="none" xmlns="http://www.w3.org/2000/svg">
<path fill-rule="evenodd" clip-rule="evenodd" d="M12.593 23.2576L12.582 23.2596L12.511 23.2946L12.491 23.2986L12.477 23.2946L12.406 23.2596C12.396 23.2556 12.387 23.2586 12.382 23.2646L12.378 23.2746L12.361 23.7026L12.366 23.7226L12.376 23.7356L12.48 23.8096L12.495 23.8136L12.507 23.8096L12.611 23.7356L12.623 23.7196L12.627 23.7026L12.61 23.2756C12.608 23.2656 12.601 23.2586 12.593 23.2576ZM12.858 23.1446L12.845 23.1466L12.66 23.2396L12.65 23.2496L12.647 23.2606L12.665 23.6906L12.67 23.7026L12.678 23.7096L12.879 23.8026C12.891 23.8066 12.902 23.8026 12.908 23.7946L12.912 23.7806L12.878 23.1666C12.875 23.1546 12.868 23.1466 12.858 23.1446ZM12.143 23.1466C12.1384 23.1445 12.1334 23.144 12.1285 23.1451C12.1236 23.1462 12.1192 23.1488 12.116 23.1526L12.11 23.1666L12.076 23.7806C12.076 23.7926 12.083 23.8006 12.093 23.8046L12.108 23.8026L12.309 23.7096L12.319 23.7016L12.323 23.6906L12.34 23.2606L12.337 23.2486L12.327 23.2386L12.143 23.1466Z" fill="white"/>
<path fill-rule="evenodd" clip-rule="evenodd" d="M6 3C5.46957 3 4.96086 3.21071 4.58579 3.58579C4.21071 3.96086 4 4.46957 4 5V21C4 21.2652 4.10536 21.5196 4.29289 21.7071C4.48043 21.8946 4.73478 22 5 22C5.26522 22 5.51957 21.8946 5.70711 21.7071C5.89464 21.5196 6 21.2652 6 21V16H19.804C20.0069 16.0001 20.206 15.944 20.379 15.838C20.5521 15.732 20.6924 15.5802 20.7845 15.3993C20.8767 15.2185 20.917 15.0157 20.901 14.8134C20.885 14.6111 20.8134 14.4171 20.694 14.253L17.236 9.5L20.692 4.747C20.8113 4.58294 20.8829 4.38908 20.899 4.18686C20.915 3.98463 20.8748 3.78192 20.7828 3.60112C20.6908 3.42032 20.5506 3.26849 20.3776 3.1624C20.2047 3.05632 20.0059 3.00011 19.803 3H6ZM6 14V5H18.036L15.406 8.618C15.2197 8.87433 15.1193 9.18309 15.1193 9.5C15.1193 9.81691 15.2197 10.1257 15.406 10.382L18.035 14H6Z" fill="white"/>
</svg>
