<svg width="24" height="24" viewBox="0 0 24 24" fill="none" xmlns="http://www.w3.org/2000/svg">
<path d="M9 4.21053H7C6.46957 4.21053 5.96086 4.44342 5.58579 4.85797C5.21071 5.27253 5 5.83478 5 6.42105V19.6842C5 20.2705 5.21071 20.8327 5.58579 21.2473C5.96086 21.6618 6.46957 21.8947 7 21.8947H12.697M19 10.8421V6.42105C19 5.83478 18.7893 5.27253 18.4142 4.85797C18.0391 4.44342 17.5304 4.21053 17 4.21053H15" stroke="#FFF" stroke-width="1.5" stroke-linecap="round" stroke-linejoin="round"/>
<path d="M9 4.21053C9 3.62426 9.21071 3.062 9.58579 2.64745C9.96086 2.23289 10.4696 2 11 2H13C13.5304 2 14.0391 2.23289 14.4142 2.64745C14.7893 3.062 15 3.62426 15 4.21053C15 4.79679 14.7893 5.35905 14.4142 5.7736C14.0391 6.18816 13.5304 6.42105 13 6.42105H11C10.4696 6.42105 9.96086 6.18816 9.58579 5.7736C9.21071 5.35905 9 4.79679 9 4.21053ZM9 10.8421H13H9ZM9 15.2632H12H9Z" fill="#FFF"/>
<path d="M9 10.8421H13M9 15.2632H12M9 4.21053C9 3.62426 9.21071 3.062 9.58579 2.64745C9.96086 2.23289 10.4696 2 11 2H13C13.5304 2 14.0391 2.23289 14.4142 2.64745C14.7893 3.062 15 3.62426 15 4.21053C15 4.79679 14.7893 5.35905 14.4142 5.7736C14.0391 6.18816 13.5304 6.42105 13 6.42105H11C10.4696 6.42105 9.96086 6.18816 9.58579 5.7736C9.21071 5.35905 9 4.79679 9 4.21053Z" stroke="#FFF" stroke-linecap="round" stroke-linejoin="round"/>
<g clip-path="url(#clip0_9793_328)">
<path d="M18.5 23.3125C21.1579 23.3125 23.3125 21.1579 23.3125 18.5C23.3125 15.8421 21.1579 13.6875 18.5 13.6875C15.8421 13.6875 13.6875 15.8421 13.6875 18.5C13.6875 21.1579 15.8421 23.3125 18.5 23.3125Z" stroke="#FFF" stroke-width="0.6875" stroke-linecap="round" stroke-linejoin="round"/>
<path d="M16.4375 18.5H20.5625" stroke="#FFF" stroke-width="0.6875" stroke-linecap="round" stroke-linejoin="round"/>
</g>
<defs>
<clipPath id="clip0_9793_328">
<rect width="11" height="11" fill="white" transform="translate(13 13)"/>
</clipPath>
</defs>
</svg>
