<svg width="20" height="20" viewBox="0 0 20 20" fill="none" xmlns="http://www.w3.org/2000/svg">
<path d="M7 13L13 7M6.56 1.69C5.46808 2.14199 4.47587 2.80459 3.64 3.64M1.69 6.56C1.23656 7.6503 1.0021 8.81917 1 10M1.69 13.44C2.14199 14.5319 2.80459 15.5241 3.64 16.36M6.56 18.31C7.6503 18.7634 8.81917 18.9979 10 19M13.44 18.31C14.5319 17.858 15.5241 17.1954 16.36 16.36M18.31 13.44C18.7634 12.3497 18.9979 11.1808 19 10M18.31 6.56C17.858 5.46808 17.1954 4.47587 16.36 3.64M13.44 1.69C12.3497 1.23656 11.1808 1.0021 10 1M7 7.03V7.045M13 13.045V13.06" stroke="#FFFFFF" stroke-width="2" stroke-linecap="round" stroke-linejoin="round"/>
</svg>
