<svg width="48" height="48" viewBox="0 0 48 48" fill="none" xmlns="http://www.w3.org/2000/svg">
<path d="M43.4343 36.6565C43.1643 37.3409 42.5921 37.8611 41.885 38.0649L37.2196 39.4094C36.9999 39.4723 36.7792 39.5024 36.5618 39.5024C36.5429 39.5024 36.5244 39.4981 36.5055 39.4978V41.0833C36.5055 41.3454 36.293 41.5578 36.031 41.5578H35.6729C35.5759 41.667 35.4512 41.7541 35.3016 41.8004L28.3559 43.9626C28.2745 43.9881 28.1914 44 28.11 44C27.7559 44 27.427 43.7717 27.3168 43.4163L26.738 41.5575H22.6289C22.3668 41.5575 22.1544 41.345 22.1544 41.0829L22.1547 29.7157L18.817 32.8333C18.3859 33.2361 17.8332 33.4399 17.2786 33.4399C16.7898 33.4399 16.2997 33.2814 15.8903 32.9614L10.9808 29.1197C10.7928 28.9728 10.6442 28.7964 10.5168 28.6094C10.4801 28.6141 10.4457 28.6253 10.4086 28.6283C10.353 28.6326 10.2978 28.6342 10.2425 28.6342C9.72426 28.6342 9.22988 28.4522 8.8351 28.112L6.28895 25.9203C6.12084 25.7757 6.01892 25.5739 6.00237 25.3515C5.98582 25.1291 6.05631 24.914 6.20126 24.7459C6.23898 24.7019 6.28068 24.6625 6.32569 24.6281C6.08147 24.321 6.08147 23.8733 6.34621 23.5662C6.4071 23.4954 6.47858 23.4361 6.55701 23.3901C6.46501 23.1194 6.51432 22.8087 6.71354 22.5774C6.91276 22.3457 7.21191 22.2511 7.49385 22.3014C7.52761 22.2167 7.57526 22.1379 7.63648 22.0671C7.78142 21.899 7.98362 21.7971 8.20567 21.7805C8.42607 21.7617 8.64282 21.8341 8.81093 21.9794L9.35761 22.45C9.38342 22.405 9.41387 22.3623 9.44828 22.3222C9.74777 21.9741 10.2749 21.9351 10.6227 22.2346L12.5017 23.8521C12.9385 24.2281 13.1837 24.7427 13.2377 25.2751C13.419 25.3512 13.5954 25.4429 13.7579 25.57L17.1488 28.2236L21.8198 23.8604C22.2143 23.4924 22.7064 23.3034 23.2057 23.2697L26.1979 23.2144L26.1986 21.3874C25.9312 21.2299 25.683 21.0542 25.4547 20.8599H22.8797C22.657 20.8599 22.4674 20.6968 22.4339 20.4764C22.2341 19.1517 22.0964 17.9472 22.0054 16.8416C21.9071 16.6946 21.8194 16.5325 21.7499 16.3534C21.4743 15.6449 21.5421 14.9355 21.878 14.5072C21.8198 12.0392 22.0388 10.2268 22.3592 8.9073C22.5484 7.86885 22.924 6.83768 23.6074 5.98891C24.7034 4.62819 26.3944 3.98054 28.6216 4.04907C28.6785 4.05106 28.7337 4.06363 28.7847 4.08547C31.6197 3.75984 33.734 4.36544 35.0719 5.88866C36.3708 7.36722 36.6812 9.42125 36.6647 11.1166C36.7673 12.0792 36.8149 13.2027 36.7825 14.5079C36.9043 14.6634 36.9939 14.8577 37.0413 15.0807C37.1243 15.4719 37.078 15.9239 36.9112 16.3531C36.8417 16.5312 36.7507 16.6943 36.6491 16.8452C36.5541 17.9505 36.4105 19.1548 36.2024 20.4791C36.168 20.6982 35.979 20.86 35.7573 20.86H33.2188C32.9868 21.0582 32.734 21.2373 32.4616 21.3974V23.2145L35.1593 23.2221C35.9595 23.2294 36.7365 23.6331 37.1763 24.3705L43.265 34.5703C43.6419 35.202 43.7044 35.9728 43.4344 36.6571L43.4343 36.6565ZM12.0376 24.3904L10.1586 22.7732C10.1262 22.7451 10.0911 22.7454 10.0706 22.7444C10.0517 22.7457 10.0156 22.7533 9.98751 22.7858C9.95938 22.8182 9.95773 22.8549 9.95905 22.8738C9.96037 22.8927 9.96799 22.9291 10.0004 22.9569L10.4081 23.3076C10.5034 23.3897 10.5484 23.5161 10.5262 23.6402C10.5041 23.7643 10.4177 23.8672 10.2996 23.9109C10.1791 23.9559 10.005 23.946 9.90676 23.8613L8.34679 22.5181C8.31403 22.49 8.27796 22.4886 8.25877 22.4896C8.2399 22.4909 8.20383 22.4986 8.1757 22.531C8.14758 22.5634 8.14592 22.6002 8.14725 22.6187C8.14857 22.6376 8.15618 22.674 8.18861 22.7018L9.59202 23.91C9.74094 24.0384 9.75781 24.2624 9.62975 24.4117C9.56819 24.4831 9.46925 24.5404 9.37527 24.5473C9.28128 24.5543 9.17671 24.5377 9.10523 24.4755L7.42446 23.0287C7.37383 22.9847 7.29606 22.9917 7.25338 23.0413C7.21069 23.091 7.21664 23.1697 7.26628 23.2124L8.94705 24.6592C9.09597 24.7869 9.11284 25.0116 8.98478 25.1609C8.92323 25.2324 8.82461 25.2896 8.7303 25.2966C8.63864 25.3035 8.53208 25.287 8.46027 25.2247L7.05686 24.0169C7.02476 23.9891 6.98703 23.9841 6.96883 23.9887C6.94996 23.9901 6.91422 23.997 6.8861 24.0301C6.84308 24.0797 6.84903 24.1585 6.899 24.2012L8.45897 25.5438C8.56089 25.6315 8.60458 25.7695 8.57214 25.8995C8.54236 26.0196 8.44805 26.1345 8.33023 26.1719C8.21309 26.2089 8.07973 26.203 7.98607 26.1219L6.91187 25.1973C6.88374 25.1731 6.85297 25.1685 6.83278 25.1685H6.82351C6.80465 25.1698 6.76891 25.1774 6.74078 25.2099C6.71265 25.2423 6.711 25.279 6.71232 25.2979C6.71365 25.3168 6.72126 25.3532 6.75369 25.381L9.2995 27.5723C9.59236 27.8248 9.96565 27.9472 10.3558 27.9185C10.7443 27.8893 11.0968 27.7123 11.349 27.4194L12.1918 26.4409C12.7133 25.8326 12.6445 24.913 12.0376 24.3905L12.0376 24.3904ZM35.3948 16.9271C35.4967 16.9251 35.6138 16.8824 35.7323 16.798C35.9434 16.6478 36.1311 16.3913 36.2466 16.0941C36.3624 15.7973 36.3981 15.4816 36.3442 15.2281C36.319 15.1103 36.2518 14.9035 36.0844 14.8379C35.9921 14.8022 35.8743 14.8211 35.7512 14.8816C35.6701 15.5891 35.5549 16.2751 35.3948 16.9271V16.9271ZM23.2659 16.9274C23.1048 16.2748 22.9889 15.5875 22.9075 14.8786C22.8281 14.8396 22.7513 14.8187 22.6818 14.8187C22.6434 14.8187 22.6074 14.825 22.574 14.8376C22.3072 14.9415 22.1808 15.5011 22.4115 16.0941C22.6123 16.6094 22.9936 16.9211 23.2659 16.9274V16.9274ZM29.3473 21.5418C33.3977 21.3347 34.7741 18.3534 35.1252 13.7284C33.2303 12.6691 31.8722 10.8094 31.4083 9.76964C29.6113 12.0355 25.4311 12.9373 23.4998 13.243C23.7924 18.1446 25.1256 21.3275 29.3472 21.5419L29.3473 21.5418ZM29.3473 22.2523C28.4085 22.205 27.6026 22.027 26.9094 21.7417V23.4883C28.4803 23.9711 30.1793 23.9705 31.7495 23.4883V21.7497C31.0648 22.03 30.2713 22.2054 29.3474 22.2523L29.3473 22.2523ZM29.1067 42.8587L26.7336 35.2339C26.7177 35.183 26.6708 35.1505 26.6201 35.1505C26.6085 35.1505 26.5966 35.1525 26.585 35.1555L25.7002 35.4311C25.6376 35.4507 25.6029 35.5172 25.6224 35.5797L27.9955 43.2045C28.015 43.2671 28.0815 43.3032 28.1441 43.283L29.0289 43.0073C29.0912 42.9881 29.1262 42.9213 29.1067 42.8587H29.1067ZM35.1679 40.9724L34.88 40.0475L32.181 40.6898C32.1172 40.705 32.0523 40.7127 31.9878 40.7127C31.8352 40.7127 31.6853 40.6706 31.5519 40.5879C31.3623 40.4711 31.23 40.2881 31.1787 40.0723C31.1651 40.0157 31.1578 39.9588 31.1558 39.9022C30.7458 39.9125 30.401 39.6567 30.3077 39.2629C30.2858 39.1705 30.2802 39.0785 30.2891 38.9895C30.2223 38.9687 30.1581 38.9399 30.0969 38.9025C29.9069 38.7857 29.7739 38.6023 29.7226 38.3859C29.6713 38.1705 29.7067 37.9471 29.8235 37.7572C29.8609 37.6956 29.9059 37.6404 29.9565 37.5917C29.9082 37.5156 29.8718 37.4309 29.85 37.3389C29.7987 37.1231 29.8348 36.8991 29.9519 36.7098C30.0687 36.5198 30.2521 36.3875 30.4685 36.3365L33.4957 35.6002L32.7945 33.3479C32.7786 33.297 32.7316 33.2646 32.681 33.2646C32.6694 33.2646 32.6575 33.2659 32.6459 33.2695L27.3668 34.9128C27.3836 34.9486 27.4012 34.9843 27.4131 35.023L29.7862 42.6479C29.7984 42.6866 29.8037 42.726 29.81 42.765L35.0898 41.1213C35.1524 41.1015 35.1875 41.035 35.1679 40.9724L35.1679 40.9724ZM36.3626 37.4703L36.0638 36.2134C36.0254 36.0532 35.9572 35.9004 35.8596 35.7571L30.6346 37.0278C30.5906 37.0384 30.5678 37.0669 30.5578 37.0831C30.5482 37.0993 30.5327 37.132 30.5426 37.1737C30.5575 37.2376 30.624 37.2777 30.6885 37.2641L32.4898 36.8355C32.6797 36.7919 32.8707 36.9064 32.918 37.0963C32.9408 37.1886 32.9296 37.3028 32.8806 37.3835C32.831 37.4646 32.7555 37.5397 32.6632 37.5616L30.5052 38.0748C30.4632 38.0851 30.4404 38.1132 30.4301 38.1294C30.4205 38.1457 30.4049 38.1791 30.4152 38.2201C30.4255 38.2628 30.4536 38.286 30.4698 38.2956C30.486 38.3052 30.5194 38.3207 30.5601 38.3105L32.7187 37.7975C32.9087 37.7535 33.0989 37.868 33.1463 38.0573C33.1694 38.1496 33.1588 38.2638 33.1092 38.3449C33.0602 38.426 32.9841 38.5011 32.8918 38.5229L31.0906 38.9515C31.0267 38.9667 30.985 39.0339 31.0002 39.0974C31.0154 39.1619 31.0836 39.2016 31.1471 39.1877L33.1489 38.7115C33.1764 38.7049 33.2042 38.7019 33.2313 38.7019C33.3336 38.7019 33.4328 38.7463 33.5013 38.826C33.5824 38.92 33.6215 39.0643 33.5827 39.1824C33.5447 39.3006 33.4603 39.4045 33.3398 39.4329L31.9606 39.7609C31.9189 39.7712 31.8957 39.7993 31.8861 39.8155C31.8759 39.8317 31.861 39.8651 31.8709 39.9068C31.8812 39.9489 31.91 39.9717 31.9255 39.9819C31.9417 39.9922 31.9755 40.0078 32.0162 39.9972L35.2844 39.2192C35.6606 39.1298 35.9796 38.8982 36.1841 38.5663C36.3883 38.235 36.4519 37.8455 36.3625 37.4702L36.3626 37.4703ZM37.6135 34.3583L36.5049 32.5015V34.6777L37.6135 34.3583ZM29.1531 17.6514H29.7809C29.9775 17.6514 30.1366 17.4919 30.1366 17.2956C30.1366 17.0991 29.9771 16.9399 29.7809 16.9399H29.2339V16.0233C29.2339 15.8267 29.0744 15.6675 28.8781 15.6675C28.6816 15.6675 28.5224 15.827 28.5224 16.0233V17.0206C28.5221 17.3684 28.8053 17.6514 29.1531 17.6514L29.1531 17.6514ZM26.1288 14.0397C25.7463 14.0397 25.4359 14.3497 25.4359 14.7326C25.4359 15.1152 25.746 15.4256 26.1288 15.4256C26.5114 15.4256 26.8218 15.1155 26.8218 14.7326C26.8218 14.3497 26.5117 14.0397 26.1288 14.0397ZM32.5299 15.4255C32.9125 15.4255 33.2229 15.1155 33.2229 14.7326C33.2229 14.35 32.9128 14.0396 32.5299 14.0396C32.1474 14.0396 31.837 14.3497 31.837 14.7326C31.837 15.1151 32.1474 15.4255 32.5299 15.4255ZM31.0712 19.2123C31.0712 19.0157 30.9117 18.8565 30.7154 18.8565C30.5569 18.8565 30.4223 18.9604 30.3763 19.1037C30.2578 19.1745 29.8828 19.2801 29.3292 19.2801C28.7756 19.2801 28.4013 19.1742 28.2826 19.1037C28.2366 18.9601 28.1022 18.8562 27.9434 18.8562C27.7468 18.8562 27.5876 19.0157 27.5876 19.2119C27.5876 19.7868 28.4874 19.9913 29.3293 19.9913C30.1715 19.9916 31.0713 19.7867 31.0713 19.2123H31.0712Z" fill="#3E8277"/>
</svg>
